<svg xmlns="http://www.w3.org/2000/svg" width="980" height="450" viewBox="0 0 980 450">
  <defs>
    <marker id="arrow" markerWidth="10" markerHeight="10" refX="8" refY="3" orient="auto">
      <path d="M0,0 L0,6 L9,3 z" fill="#374151"/>
    </marker>
    <style>
      .group{fill:#f8fafc;stroke:#64748b;stroke-width:2;stroke-dasharray:6 6;rx:12}
      .box{fill:#eff6ff;stroke:#2563eb;stroke-width:2;rx:10}
      .sec{fill:#fff7ed;stroke:#c2410c}
      .id{fill:#fefce8;stroke:#ca8a04}
      .text{font-family:Arial, sans-serif;font-size:16px;fill:#111827}
      .small{font-size:13px;fill:#4b5563}
      .line{stroke:#374151;stroke-width:2;marker-end:url(#arrow)}
      .dash{stroke-dasharray:6 6}
    </style>
  </defs>
  <rect x="60" y="80" width="300" height="160" class="group"/>
  <text x="210" y="110" text-anchor="middle" class="text">VNet A - 10.10.0.0/16</text>
  <rect x="140" y="145" width="140" height="58" class="box"/>
  <text x="210" y="178" text-anchor="middle" class="text">Linux VM A</text>
  <rect x="620" y="80" width="300" height="160" class="group"/>
  <text x="770" y="110" text-anchor="middle" class="text">VNet B - 10.20.0.0/16</text>
  <rect x="700" y="145" width="140" height="58" class="box"/>
  <text x="770" y="178" text-anchor="middle" class="text">Linux VM B</text>
  <rect x="420" y="145" width="140" height="58" class="sec"/>
  <text x="490" y="169" text-anchor="middle" class="text">VNet peering</text>
  <text x="490" y="190" text-anchor="middle" class="small">private traffic</text>
  <line x1="280" y1="174" x2="420" y2="174" class="line"/>
  <line x1="560" y1="174" x2="700" y2="174" class="line"/>
  <rect x="350" y="275" width="260" height="58" class="sec"/>
  <text x="480" y="299" text-anchor="middle" class="text">Network Security Group</text>
  <text x="480" y="320" text-anchor="middle" class="small">SSH, HTTP, internal ICMP</text>
  <line x1="420" y1="275" x2="260" y2="203" class="line dash"/>
  <line x1="540" y1="275" x2="730" y2="203" class="line dash"/>
  <rect x="160" y="360" width="140" height="52" class="id"/>
  <text x="230" y="392" text-anchor="middle" class="text">Azure AD user</text>
  <rect x="390" y="360" width="180" height="52" class="id"/>
  <text x="480" y="381" text-anchor="middle" class="text">Custom RBAC</text>
  <text x="480" y="400" text-anchor="middle" class="small">read/start/restart</text>
  <rect x="690" y="360" width="160" height="52" class="box"/>
  <text x="770" y="381" text-anchor="middle" class="text">Storage account</text>
  <text x="770" y="400" text-anchor="middle" class="small">read validation</text>
  <line x1="300" y1="386" x2="390" y2="386" class="line"/>
  <line x1="570" y1="386" x2="690" y2="386" class="line dash"/>
</svg>
